0
SECTION
2
HEADER
9
$INSUNITS
70
4
9
$ACADVER
1
AC1014
9
$HANDSEED
5
FFFF
0
ENDSEC
0
SECTION
2
TABLES
0
TABLE
2
VPORT
5
8
100
AcDbSymbolTable
0
ENDTAB
0
TABLE
2
LTYPE
5
5
100
AcDbSymbolTable
0
LTYPE
5
14
100
AcDbSymbolTableRecord
100
AcDbLinetypeTableRecord
2
BYBLOCK
70
0
0
LTYPE
5
15
100
AcDbSymbolTableRecord
100
AcDbLinetypeTableRecord
2
BYLAYER
70
0
0
ENDTAB
0
TABLE
2
LAYER
5
2
100
AcDbSymbolTable
70
2
0
LAYER
5
50
100
AcDbSymbolTableRecord
100
AcDbLayerTableRecord
2
0
70
0
6
CONTINUOUS
0
ENDTAB
0
TABLE
2
STYLE
5
3
100
AcDbSymbolTable
70
1
0
STYLE
5
11
100
AcDbSymbolTableRecord
100
AcDbTextStyleTableRecord
2
STANDARD
70
0
0
ENDTAB
0
TABLE
2
VIEW
5
6
100
AcDbSymbolTable
70
0
0
ENDTAB
0
TABLE
2
UCS
5
7
100
AcDbSymbolTable
70
0
0
ENDTAB
0
TABLE
2
APPID
5
9
100
AcDbSymbolTable
70
2
0
APPID
5
12
100
AcDbSymbolTableRecord
100
AcDbRegAppTableRecord
2
ACAD
70
0
0
ENDTAB
0
TABLE
2
DIMSTYLE
5
A
100
AcDbSymbolTable
70
1
0
ENDTAB
0
TABLE
2
BLOCK_RECORD
5
1
100
AcDbSymbolTable
70
1
0
BLOCK_RECORD
5
1F
100
AcDbSymbolTableRecord
100
AcDbBlockTableRecord
2
*MODEL_SPACE
0
BLOCK_RECORD
5
1B
100
AcDbSymbolTableRecord
100
AcDbBlockTableRecord
2
*PAPER_SPACE
0
ENDTAB
0
ENDSEC
0
SECTION
2
BLOCKS
0
BLOCK
5
20
100
AcDbEntity
100
AcDbBlockBegin
2
*MODEL_SPACE
0
ENDBLK
5
21
100
AcDbEntity
100
AcDbBlockEnd
0
BLOCK
5
1C
100
AcDbEntity
100
AcDbBlockBegin
2
*PAPER_SPACE
0
ENDBLK
5
1D
100
AcDbEntity
100
AcDbBlockEnd
0
ENDSEC
0
SECTION
2
ENTITIES
0
LWPOLYLINE
5
100
100
AcDbEntity
8
0
100
AcDbPolyline
90
8
70
1
43
0.0
10
0
20
94.25
42
0.41421356237309681
10
-1.0000000000000004
20
95.25
10
-284.75
20
95.25
42
0.41421356237310542
10
-285.75
20
94.25
10
-285.75
20
0.99999999999999645
42
0.4142135623731053
10
-284.75
20
1.8179902028236938e-14
10
-1.0000000000000142
20
0
42
0.41421356237309936
10
3.4694469519536142e-15
20
0.99999999999999667
0
LWPOLYLINE
5
101
100
AcDbEntity
8
0
100
AcDbPolyline
90
8
70
1
43
0.0
10
-188.86250000000001
20
40.625000000000007
42
0.4142135623731254
10
-188.26250000000002
20
41.225000000000009
10
-188.26250000000002
20
54.024999999999999
42
0.41421356237311674
10
-188.86250000000001
20
54.624999999999993
10
-201.66250000000002
20
54.624999999999993
42
0.4142135623731254
10
-202.26249999999999
20
54.024999999999999
10
-202.26249999999999
20
41.225000000000009
42
0.41421356237311674
10
-201.66250000000002
20
40.625000000000014
0
LWPOLYLINE
5
102
100
AcDbEntity
8
0
100
AcDbPolyline
90
8
70
1
43
0.0
10
-226.96250000000003
20
40.625000000000007
42
0.4142135623731254
10
-226.36250000000004
20
41.225000000000009
10
-226.36250000000004
20
54.024999999999999
42
0.41421356237311674
10
-226.96250000000003
20
54.624999999999993
10
-239.76249999999999
20
54.624999999999993
42
0.41421356237313406
10
-240.36249999999998
20
54.024999999999999
10
-240.36249999999998
20
41.225000000000009
42
0.4142135623731254
10
-239.76249999999999
20
40.625000000000014
0
LWPOLYLINE
5
103
100
AcDbEntity
8
0
100
AcDbPolyline
90
8
70
1
43
0.0
10
-150.76249999999999
20
40.625000000000007
42
0.41421356237306473
10
-150.16250000000002
20
41.225000000000009
10
-150.16249999999999
20
54.024999999999999
42
0.41421356237311241
10
-150.76249999999999
20
54.624999999999993
10
-163.5625
20
54.624999999999993
42
0.4142135623731254
10
-164.16249999999997
20
54.024999999999999
10
-164.16249999999997
20
41.225000000000009
42
0.41421356237311674
10
-163.5625
20
40.625000000000014
0
LWPOLYLINE
5
104
100
AcDbEntity
8
0
100
AcDbPolyline
90
8
70
1
43
0.0
10
-169.8125
20
40.625000000000007
42
0.4142135623731254
10
-169.21250000000001
20
41.225000000000009
10
-169.21250000000001
20
54.024999999999999
42
0.41421356237311674
10
-169.8125
20
54.624999999999993
10
-182.61250000000001
20
54.624999999999993
42
0.4142135623731254
10
-183.21249999999998
20
54.024999999999999
10
-183.21249999999998
20
41.225000000000009
42
0.41421356237311674
10
-182.61250000000001
20
40.625000000000014
0
LWPOLYLINE
5
105
100
AcDbEntity
8
0
100
AcDbPolyline
90
8
70
1
43
0.0
10
-112.66249999999999
20
40.625000000000007
42
0.41421356237312101
10
-112.06250000000003
20
41.225000000000009
10
-112.06249999999999
20
54.024999999999999
42
0.41421356237309936
10
-112.66249999999999
20
54.624999999999993
10
-125.46250000000001
20
54.624999999999993
42
0.41421356237312101
10
-126.0625
20
54.024999999999999
10
-126.06250000000001
20
41.225000000000009
42
0.41421356237309936
10
-125.46250000000001
20
40.625
0
LWPOLYLINE
5
106
100
AcDbEntity
8
0
100
AcDbPolyline
90
8
70
1
43
0.0
10
-207.31250000000003
20
54.024999999999999
10
-207.31250000000003
20
41.225000000000009
42
-0.4142135623731254
10
-207.91250000000002
20
40.625000000000007
10
-220.71250000000003
20
40.625000000000043
42
-0.41421356237311674
10
-221.3125
20
41.225000000000009
10
-221.3125
20
54.024999999999999
42
-0.4142135623731254
10
-220.71250000000003
20
54.624999999999993
10
-207.91250000000002
20
54.624999999999957
42
-0.41421356237311674
0
LWPOLYLINE
5
107
100
AcDbEntity
8
0
100
AcDbPolyline
90
8
70
1
43
0.0
10
-145.11250000000001
20
41.225000000000009
42
0.41421356237311241
10
-144.51249999999999
20
40.625
10
-131.71250000000001
20
40.625000000000007
42
0.41421356237312101
10
-131.11250000000001
20
41.225000000000009
10
-131.11250000000001
20
54.024999999999999
42
0.41421356237309936
10
-131.71250000000001
20
54.624999999999993
10
-144.51249999999999
20
54.624999999999993
42
0.41421356237306473
10
-145.11250000000001
20
54.024999999999999
0
LWPOLYLINE
5
108
100
AcDbEntity
8
0
100
AcDbPolyline
90
8
70
1
43
0.0
10
-122.1875
20
59.675000000000004
42
0.41421356237312101
10
-121.58750000000003
20
60.274999999999999
10
-121.58749999999999
20
73.075000000000017
42
0.41421356237309936
10
-122.1875
20
73.675000000000011
10
-134.98750000000001
20
73.675000000000011
42
0.41421356237312101
10
-135.58750000000001
20
73.075000000000017
10
-135.58750000000001
20
60.274999999999999
42
0.41421356237309936
10
-134.98750000000001
20
59.674999999999997
0
LWPOLYLINE
5
109
100
AcDbEntity
8
0
100
AcDbPolyline
90
8
70
1
43
0.0
10
-179.33750000000001
20
59.675000000000004
42
0.4142135623731254
10
-178.73750000000001
20
60.274999999999999
10
-178.73750000000001
20
73.075000000000017
42
0.41421356237311674
10
-179.33750000000001
20
73.674999999999997
10
-192.13750000000002
20
73.675000000000011
42
0.4142135623731254
10
-192.73750000000001
20
73.075000000000017
10
-192.73750000000001
20
60.274999999999999
42
0.41421356237311674
10
-192.13750000000002
20
59.675000000000011
0
LWPOLYLINE
5
110
100
AcDbEntity
8
0
100
AcDbPolyline
90
8
70
1
43
0.0
10
-84.087500000000006
20
59.675000000000004
42
0.41421356237312101
10
-83.48750000000004
20
60.274999999999999
10
-83.487500000000011
20
73.075000000000017
42
0.41421356237309936
10
-84.087500000000006
20
73.675000000000011
10
-96.887500000000003
20
73.675000000000011
42
0.41421356237306473
10
-97.487500000000011
20
73.075000000000017
10
-97.487500000000011
20
60.274999999999999
42
0.41421356237311241
10
-96.887500000000003
20
59.674999999999997
0
LWPOLYLINE
5
111
100
AcDbEntity
8
0
100
AcDbPolyline
90
8
70
1
43
0.0
10
-217.43750000000003
20
59.675000000000004
42
0.4142135623731254
10
-216.83750000000003
20
60.274999999999999
10
-216.83750000000003
20
73.075000000000017
42
0.41421356237311674
10
-217.43750000000003
20
73.675000000000011
10
-230.23750000000004
20
73.675000000000011
42
0.4142135623731254
10
-230.83750000000003
20
73.075000000000017
10
-230.83750000000003
20
60.274999999999999
42
0.41421356237311674
10
-230.23750000000004
20
59.675000000000011
0
LWPOLYLINE
5
112
100
AcDbEntity
8
0
100
AcDbPolyline
90
8
70
1
43
0.0
10
-78.437500000000014
20
60.274999999999999
42
0.41421356237310375
10
-77.837500000000006
20
59.675000000000004
10
-65.037499999999994
20
59.675000000000004
42
0.41421356237310375
10
-64.437500000000014
20
60.274999999999999
10
-64.4375
20
73.075000000000017
42
0.41421356237310375
10
-65.037499999999994
20
73.675000000000011
10
-77.837500000000006
20
73.675000000000011
42
0.41421356237310375
10
-78.4375
20
73.075000000000017
0
LWPOLYLINE
5
113
100
AcDbEntity
8
0
100
AcDbPolyline
90
8
70
1
43
0.0
10
-141.23750000000001
20
59.675000000000004
42
0.41421356237312101
10
-140.63750000000005
20
60.274999999999999
10
-140.63750000000002
20
73.075000000000017
42
0.41421356237309936
10
-141.23750000000001
20
73.675000000000011
10
-154.03749999999999
20
73.675000000000011
42
0.41421356237306473
10
-154.63750000000002
20
73.075000000000017
10
-154.63750000000002
20
60.274999999999999
42
0.41421356237311241
10
-154.03749999999999
20
59.675000000000004
0
LWPOLYLINE
5
114
100
AcDbEntity
8
0
100
AcDbPolyline
90
8
70
1
43
0.0
10
-217.43750000000003
20
78.725000000000009
42
0.41421356237312978
10
-216.83750000000003
20
79.325000000000017
10
-216.83750000000003
20
92.125
42
0.41421356237312978
10
-217.43750000000003
20
92.724999999999994
10
-232.61875000000001
20
92.725000000000009
42
0.41421356237317308
10
-233.21875000000003
20
92.125
10
-233.21875000000003
20
79.325000000000017
42
0.41421356237313839
10
-232.61875000000003
20
78.725000000000009
0
LWPOLYLINE
5
115
100
AcDbEntity
8
0
100
AcDbPolyline
90
8
70
1
43
0.0
10
-5.5062500000000005
20
40.625000000000007
42
0.41421356237310314
10
-4.9062500000000053
20
41.225000000000009
10
-4.9062500000000018
20
54.025000000000006
42
0.41421356237309076
10
-5.5062500000000014
20
54.625
10
-23.068749999999998
20
54.625
42
0.41421356237310375
10
-23.668750000000003
20
54.024999999999999
10
-23.668749999999996
20
41.225000000000009
42
0.4142135623731189
10
-23.06874999999998
20
40.625000000000007
0
LWPOLYLINE
5
116
100
AcDbEntity
8
0
100
AcDbPolyline
90
8
70
1
43
0.0
10
-265.0625
20
78.724999999999994
42
0.41421356237312978
10
-264.46249999999998
20
79.324999999999989
10
-264.46249999999998
20
92.125
42
0.41421356237312978
10
-265.0625
20
92.724999999999994
10
-280.24374999999998
20
92.725000000000009
42
0.41421356237317308
10
-280.84375
20
92.125
10
-280.84375
20
79.324999999999989
42
0.41421356237313839
10
-280.24374999999998
20
78.724999999999994
0
LWPOLYLINE
5
117
100
AcDbEntity
8
0
100
AcDbPolyline
90
14
70
1
43
0.0
10
-243.63124999999999
20
59.675000000000004
42
0.41421356237312978
10
-243.03125
20
60.274999999999999
10
-243.03125
20
73.075000000000017
42
0.41421356237312978
10
-243.63124999999999
20
73.674999999999997
10
-244.11825000000005
20
73.675000000000011
10
-244.11825000000005
20
74.075000000000003
42
0.41421356237314705
10
-244.71825000000001
20
74.674999999999997
10
-250.51824999999997
20
74.674999999999997
42
0.41421356237316442
10
-251.11824999999999
20
74.075000000000003
10
-251.11824999999999
20
73.675000000000011
10
-265.95625000000001
20
73.674999999999997
42
0.41421356237312978
10
-266.55624999999998
20
73.075000000000017
10
-266.55624999999998
20
60.274999999999999
42
0.41421356237312978
10
-265.95625000000001
20
59.675000000000011
0
LWPOLYLINE
5
118
100
AcDbEntity
8
0
100
AcDbPolyline
90
47
70
1
43
0.0
10
-78.068749999999994
20
76.724999999999994
42
0.41421356237309503
10
-77.46875
20
77.324999999999989
10
-77.468749999999986
20
92.124999999999986
42
0.41421356237307339
10
-78.06874999999998
20
92.724999999999994
10
-208.80624999999998
20
92.724999999999994
42
0.41421356237315576
10
-209.40625
20
92.124999999999986
10
-209.40625
20
79.325000000000017
42
0.41421356237313839
10
-208.80625000000003
20
78.725000000000023
10
-203.52500000000003
20
78.725000000000009
10
-203.52500000000003
20
77.324999999999989
42
0.41421356237314705
10
-202.92500000000004
20
76.72499999999998
10
-192.39425
20
76.725000000000009
42
0.4142135623731254
10
-191.79425000000003
20
77.324999999999989
10
-191.79425000000003
20
78.725000000000009
10
-184.46875
20
78.725000000000009
10
-184.46875
20
77.324999999999974
42
0.4142135623731254
10
-183.86875000000001
20
76.72499999999998
10
-178.06875000000002
20
76.72499999999998
42
0.41421356237316442
10
-177.46875
20
77.324999999999989
10
-177.46875
20
78.725000000000009
10
-174.91825000000003
20
78.725000000000009
10
-174.91825000000003
20
77.324999999999989
42
0.41421356237314705
10
-174.31825000000003
20
76.72499999999998
10
-168.51825000000002
20
76.72499999999998
42
0.41421356237316442
10
-167.91825
20
77.324999999999989
10
-167.91825
20
78.725000000000037
10
-165.42500000000001
20
78.725000000000037
10
-165.42500000000001
20
77.325000000000003
42
0.41421356237314705
10
-164.82500000000002
20
76.725000000000009
10
-159.02500000000006
20
76.72499999999998
42
0.41421356237311674
10
-158.42500000000001
20
77.325000000000003
10
-158.42500000000001
20
78.725000000000037
10
-127.32500000000002
20
78.725000000000037
10
-127.32500000000002
20
77.325000000000003
42
0.41421356237309503
10
-126.72499999999999
20
76.725000000000009
10
-120.92500000000001
20
76.725000000000009
42
0.41421356237310802
10
-120.325
20
77.325000000000003
10
-120.325
20
78.725000000000037
10
-117.83175000000001
20
78.725000000000037
10
-117.83175000000003
20
77.325000000000003
42
0.41421356237308637
10
-117.23175000000001
20
76.724999999999994
10
-111.43175000000001
20
76.725000000000009
42
0.41421356237310802
10
-110.83175
20
77.324999999999989
10
-110.83175
20
78.725000000000037
10
-93.955750000000009
20
78.725000000000009
10
-93.955750000000009
20
77.325000000000003
42
0.41421356237310802
10
-93.35575
20
76.725000000000023
0
LWPOLYLINE
5
119
100
AcDbEntity
8
0
100
AcDbPolyline
90
8
70
1
43
0.0
10
-241.25
20
21.575000000000003
42
0.41421356237312978
10
-240.65000000000001
20
22.175000000000004
10
-240.65000000000001
20
34.975000000000009
42
0.41421356237312978
10
-241.25
20
35.574999999999989
10
-254.05000000000001
20
35.575000000000003
42
0.41421356237312978
10
-254.65000000000001
20
34.975000000000009
10
-254.65000000000001
20
22.175000000000004
42
0.41421356237312978
10
-254.05000000000001
20
21.575000000000017
0
LWPOLYLINE
5
120
100
AcDbEntity
8
0
100
AcDbPolyline
90
8
70
1
43
0.0
10
-35.862499999999997
20
54.024999999999999
10
-35.862500000000011
20
41.225000000000009
42
-0.41421356237310153
10
-36.462500000000006
20
40.625000000000007
10
-49.262499999999996
20
40.625000000000007
42
-0.41421356237309936
10
-49.862499999999997
20
41.225000000000009
10
-49.862499999999997
20
54.024999999999999
42
-0.41421356237309503
10
-49.262500000000003
20
54.624999999999993
10
-36.462500000000006
20
54.625
42
-0.41421356237309287
0
LWPOLYLINE
5
121
100
AcDbEntity
8
0
100
AcDbPolyline
90
8
70
1
43
0.0
10
-159.40000000000003
20
22.175000000000004
42
0.41421356237309503
10
-158.80000000000001
20
21.574999999999996
10
-146
20
21.575000000000003
42
0.41421356237309725
10
-145.40000000000001
20
22.175000000000004
10
-145.40000000000001
20
34.975000000000009
42
0.41421356237309503
10
-146
20
35.57500000000001
10
-158.80000000000001
20
35.575000000000003
42
0.41421356237309725
10
-159.40000000000003
20
34.975000000000009
0
LWPOLYLINE
5
122
100
AcDbEntity
8
0
100
AcDbPolyline
90
8
70
1
43
0.0
10
-222.19999999999999
20
21.575000000000003
42
0.41421356237312978
10
-221.59999999999999
20
22.175000000000004
10
-221.59999999999999
20
34.975000000000009
42
0.41421356237312978
10
-222.19999999999999
20
35.574999999999989
10
-235
20
35.575000000000003
42
0.41421356237312978
10
-235.59999999999999
20
34.975000000000009
10
-235.59999999999999
20
22.175000000000004
42
0.41421356237312978
10
-235
20
21.575000000000003
0
LWPOLYLINE
5
123
100
AcDbEntity
8
0
100
AcDbPolyline
90
8
70
1
43
0.0
10
-5.5062500000000014
20
78.724999999999994
42
0.41421356237310214
10
-4.9062500000000089
20
79.324999999999989
10
-4.9062499999999911
20
92.125
42
0.41421356237310047
10
-5.5062500000000014
20
92.725000000000009
10
-20.6875
20
92.725000000000009
42
0.41421356237309725
10
-21.287500000000001
20
92.125
10
-21.287499999999994
20
79.324999999999989
42
0.41421356237309936
10
-20.687500000000014
20
78.724999999999994
0
LWPOLYLINE
5
124
100
AcDbEntity
8
0
100
AcDbPolyline
90
8
70
1
43
0.0
10
-53.131250000000009
20
78.724999999999994
42
0.41421356237310375
10
-52.531250000000014
20
79.324999999999989
10
-52.531250000000007
20
92.124999999999986
42
0.41421356237308637
10
-53.131249999999994
20
92.724999999999994
10
-68.3125
20
92.724999999999994
42
0.41421356237309076
10
-68.912499999999994
20
92.124999999999986
10
-68.91249999999998
20
79.324999999999989
42
0.41421356237310375
10
-68.312499999999986
20
78.724999999999994
0
LWPOLYLINE
5
125
100
AcDbEntity
8
0
100
AcDbPolyline
90
20
70
1
43
0.0
10
-5.5062500000000005
20
59.675000000000004
42
0.41421356237310314
10
-4.9062500000000053
20
60.274999999999999
10
-4.90625
20
73.075000000000003
42
0.41421356237307771
10
-5.5062500000000014
20
73.675000000000011
10
-5.9932500000000033
20
73.675000000000011
10
-5.9932499999999926
20
74.075000000000003
42
0.41421356237308149
10
-6.5932499999999905
20
74.674999999999997
10
-12.39325
20
74.674999999999983
42
0.41421356237308421
10
-12.993249999999996
20
74.075000000000003
10
-12.993249999999996
20
73.675000000000011
10
-29.869249999999994
20
73.675000000000011
10
-29.869249999999997
20
74.075000000000003
42
0.41421356237308637
10
-30.469249999999999
20
74.674999999999997
10
-36.269250000000007
20
74.674999999999997
42
0.41421356237308854
10
-36.869250000000008
20
74.075000000000003
10
-36.869250000000008
20
73.675000000000011
10
-39.737499999999997
20
73.674999999999983
42
0.41421356237309076
10
-40.337499999999991
20
73.075000000000003
10
-40.337499999999991
20
60.274999999999999
42
0.41421356237310375
10
-39.73749999999999
20
59.674999999999997
0
LWPOLYLINE
5
126
100
AcDbEntity
8
0
100
AcDbPolyline
90
11
70
1
43
0.0
10
-283.22500000000002
20
60.275000000000006
42
0.4142135623731254
10
-282.62500000000006
20
59.675000000000026
10
-268.59424999999999
20
59.675000000000011
42
0.41421356237313839
10
-267.99425000000002
20
60.275000000000006
10
-267.99425000000002
20
74.075000000000003
42
0.41421356237314705
10
-268.59424999999999
20
74.674999999999997
10
-274.39425
20
74.674999999999997
42
0.41421356237313839
10
-274.99424999999997
20
74.075000000000003
10
-274.99424999999997
20
73.674999999999997
10
-282.62500000000006
20
73.674999999999983
42
0.4142135623731254
10
-283.22500000000002
20
73.075000000000003
0
LWPOLYLINE
5
127
100
AcDbEntity
8
0
100
AcDbPolyline
90
44
70
1
43
0.0
10
-246.01250000000005
20
40.625
42
0.41421356237316442
10
-245.41250000000005
20
41.225000000000009
10
-245.41250000000002
20
54.025000000000006
42
0.41421356237316875
10
-246.01250000000007
20
54.625000000000014
10
-248.88075000000003
20
54.625
10
-248.88075000000003
20
55.025000000000006
42
0.41421356237316875
10
-249.48075000000011
20
55.625000000000007
10
-255.28075000000004
20
55.625
42
0.41421356237312978
10
-255.88075000000003
20
55.025000000000006
10
-255.88075000000003
20
54.625
10
-270.71875
20
54.625
42
0.41421356237312978
10
-271.31875000000002
20
54.025000000000006
10
-271.31875000000002
20
53.538000000000004
10
-272.75675000000001
20
53.538000000000004
10
-272.75675000000001
20
55.025000000000006
42
0.41421356237316875
10
-273.35675000000009
20
55.625000000000007
10
-279.15674999999999
20
55.625000000000014
42
0.41421356237313839
10
-279.75675000000001
20
55.02500000000002
10
-279.75675000000001
20
53.538000000000004
10
-280.24374999999998
20
53.538000000000004
42
0.41421356237313839
10
-280.84375
20
52.938000000000009
10
-280.84375
20
47.137999999999998
42
0.41421356237316875
10
-280.24374999999992
20
46.537999999999997
10
-279.75675000000001
20
46.538000000000004
10
-279.75675000000001
20
45.100000000000009
10
-280.24374999999998
20
45.100000000000009
42
0.41421356237313839
10
-280.84375
20
44.500000000000014
10
-280.84375
20
31.699999999999999
42
0.41421356237316875
10
-280.24374999999992
20
31.099999999999994
10
-278.46250000000003
20
31.099999999999998
10
-278.46250000000003
20
29.662000000000003
10
-280.24375000000003
20
29.661999999999988
42
0.41421356237313189
10
-280.84375
20
29.062000000000001
10
-280.84375
20
23.262
42
0.41421356237313189
10
-280.24375000000003
20
22.662000000000013
10
-278.46250000000003
20
22.661999999999999
10
-278.46250000000003
20
22.175000000000004
42
0.41421356237313839
10
-277.86250000000001
20
21.574999999999996
10
-265.0625
20
21.575000000000003
42
0.41421356237312978
10
-264.46249999999998
20
22.175000000000004
10
-264.46249999999998
20
34.975000000000009
42
0.41421356237313189
10
-265.0625
20
35.574999999999989
10
-266.84375000000006
20
35.575000000000003
10
-266.84375000000006
20
40.625000000000007
0
LWPOLYLINE
5
128
100
AcDbEntity
8
0
100
AcDbPolyline
90
8
70
1
43
0.0
10
-178.44999999999999
20
22.175000000000004
42
0.41421356237312101
10
-177.84999999999999
20
21.575000000000031
10
-165.05000000000001
20
21.575000000000003
42
0.41421356237312978
10
-164.45000000000005
20
22.175000000000004
10
-164.45000000000005
20
34.975000000000009
42
0.41421356237312978
10
-165.05000000000001
20
35.575000000000003
10
-177.84999999999999
20
35.575000000000003
42
0.41421356237310375
10
-178.44999999999999
20
34.975000000000009
0
LWPOLYLINE
5
129
100
AcDbEntity
8
0
100
AcDbPolyline
90
20
70
1
43
0.0
10
-282.62500000000006
20
16.524999999999981
10
-282.13800000000003
20
16.524999999999999
10
-282.13800000000003
20
16.924999999999997
42
-0.41421356237314166
10
-281.53800000000001
20
17.524999999999999
10
-275.738
20
17.525000000000045
42
-0.41421356237314055
10
-275.13799999999998
20
16.925000000000001
10
-275.13800000000003
20
16.524999999999999
10
-258.262
20
16.524999999999999
10
-258.262
20
16.924999999999997
42
-0.41421356237312756
10
-257.66200000000003
20
17.524999999999981
10
-251.86199999999999
20
17.525000000000009
42
-0.41421356237314166
10
-251.262
20
16.924999999999997
10
-251.262
20
16.524999999999999
10
-250.77500000000001
20
16.525000000000009
42
-0.41421356237314166
10
-250.17500000000001
20
15.924999999999997
10
-250.17500000000001
20
3.125
42
-0.41421356237314116
10
-250.77500000000001
20
2.5249999999999999
10
-282.62500000000006
20
2.525000000000015
42
-0.41421356237312867
10
-283.22500000000002
20
3.125
10
-283.22500000000002
20
15.924999999999997
42
-0.41421356237312756
0
LWPOLYLINE
5
130
100
AcDbEntity
8
0
100
AcDbPolyline
90
8
70
1
43
0.0
10
-16.525000000000002
20
3.125
42
0.41421356237309315
10
-15.925000000000002
20
2.524999999999999
10
-3.125
20
2.5249999999999999
42
0.41421356237309503
10
-2.5250000000000128
20
3.125
10
-2.5249999999999999
20
15.925000000000002
42
0.41421356237309265
10
-3.125
20
16.525000000000002
10
-15.925000000000002
20
16.525000000000002
42
0.41421356237309076
10
-16.524999999999999
20
15.925000000000002
0
LWPOLYLINE
5
131
100
AcDbEntity
8
0
100
AcDbPolyline
90
8
70
1
43
0.0
10
-22.175000000000004
20
2.5249999999999999
42
0.41421356237309886
10
-21.575000000000003
20
3.125
10
-21.575000000000003
20
15.925000000000002
42
0.41421356237310153
10
-22.175000000000011
20
16.525000000000002
10
-34.975000000000009
20
16.525000000000002
42
0.41421356237309725
10
-35.57500000000001
20
15.925000000000002
10
-35.575000000000003
20
3.125
42
0.41421356237309914
10
-34.975000000000009
20
2.5249999999999995
0
LWPOLYLINE
5
132
100
AcDbEntity
8
0
100
AcDbPolyline
90
8
70
1
43
0.0
10
-73.675000000000011
20
3.125
42
0.41421356237310075
10
-73.075000000000017
20
2.5250000000000101
10
-60.274999999999999
20
2.5249999999999999
42
0.41421356237309587
10
-59.675000000000011
20
3.125
10
-59.675000000000004
20
15.925000000000002
42
0.41421356237310047
10
-60.274999999999999
20
16.525000000000002
10
-73.075000000000017
20
16.525000000000002
42
0.41421356237309176
10
-73.675000000000011
20
15.925000000000002
0
LWPOLYLINE
5
133
100
AcDbEntity
8
0
100
AcDbPolyline
90
8
70
1
43
0.0
10
-40.625
20
15.925000000000002
10
-40.625000000000007
20
3.125
42
-0.41421356237309587
10
-41.225000000000009
20
2.5249999999999999
10
-54.024999999999999
20
2.5250000000000101
42
-0.41421356237310075
10
-54.624999999999993
20
3.125
10
-54.625
20
15.925000000000002
42
-0.41421356237309176
10
-54.024999999999999
20
16.525000000000002
10
-41.225000000000009
20
16.525000000000002
42
-0.41421356237310047
0
LWPOLYLINE
5
134
100
AcDbEntity
8
0
100
AcDbPolyline
90
8
70
1
43
0.0
10
-98.375
20
2.5249999999999999
42
0.41421356237310863
10
-97.775000000000006
20
3.125
10
-97.775000000000006
20
15.925000000000002
42
0.41421356237310047
10
-98.375
20
16.525000000000006
10
-111.175
20
16.525000000000002
42
0.41421356237309503
10
-111.77500000000001
20
15.925000000000002
10
-111.77500000000001
20
3.125
42
0.41421356237309531
10
-111.175
20
2.524999999999995
0
LWPOLYLINE
5
135
100
AcDbEntity
8
0
100
AcDbPolyline
90
8
70
1
43
0.0
10
-198.38750000000002
20
59.675000000000004
42
0.4142135623731254
10
-197.78750000000002
20
60.274999999999999
10
-197.78750000000002
20
73.075000000000017
42
0.41421356237311674
10
-198.38750000000002
20
73.674999999999997
10
-211.18750000000003
20
73.675000000000011
42
0.4142135623731254
10
-211.78750000000002
20
73.075000000000017
10
-211.78750000000002
20
60.274999999999999
42
0.41421356237311674
10
-211.18750000000003
20
59.675000000000011
0
LWPOLYLINE
5
136
100
AcDbEntity
8
0
100
AcDbPolyline
90
8
70
1
43
0.0
10
-79.325000000000017
20
2.5249999999999999
42
0.41421356237309587
10
-78.725000000000009
20
3.125
10
-78.725000000000009
20
15.925000000000002
42
0.41421356237310047
10
-79.325000000000017
20
16.525000000000002
10
-92.125
20
16.525000000000002
42
0.41421356237310802
10
-92.725000000000009
20
15.925000000000002
10
-92.725000000000009
20
3.125
42
0.41421356237309964
10
-92.125
20
2.524999999999995
0
LWPOLYLINE
5
137
100
AcDbEntity
8
0
100
AcDbPolyline
90
8
70
1
43
0.0
10
-160.28749999999999
20
59.675000000000004
42
0.41421356237312978
10
-159.6875
20
60.274999999999999
10
-159.68749999999997
20
73.075000000000017
42
0.41421356237309936
10
-160.28749999999999
20
73.675000000000011
10
-173.08750000000001
20
73.675000000000011
42
0.4142135623731254
10
-173.6875
20
73.075000000000017
10
-173.6875
20
60.274999999999999
42
0.41421356237311674
10
-173.08750000000001
20
59.675000000000011
0
LWPOLYLINE
5
138
100
AcDbEntity
8
0
100
AcDbPolyline
90
8
70
1
43
0.0
10
-45.987499999999997
20
59.675000000000004
42
0.41421356237309503
10
-45.387500000000003
20
60.274999999999999
10
-45.387500000000003
20
73.075000000000017
42
0.41421356237309076
10
-45.98749999999999
20
73.675000000000011
10
-58.787500000000001
20
73.675000000000011
42
0.41421356237310375
10
-59.387499999999989
20
73.075000000000017
10
-59.387499999999996
20
60.274999999999999
42
0.41421356237310375
10
-58.787500000000001
20
59.675000000000004
0
LWPOLYLINE
5
139
100
AcDbEntity
8
0
100
AcDbPolyline
90
8
70
1
43
0.0
10
-103.1375
20
59.675000000000004
42
0.41421356237306473
10
-102.53750000000002
20
60.274999999999999
10
-102.53749999999999
20
73.075000000000017
42
0.41421356237311241
10
-103.1375
20
73.675000000000011
10
-115.9375
20
73.675000000000011
42
0.41421356237312101
10
-116.53749999999999
20
73.075000000000017
10
-116.53750000000001
20
60.274999999999999
42
0.41421356237309936
10
-115.9375
20
59.674999999999997
0
LWPOLYLINE
5
140
100
AcDbEntity
8
0
100
AcDbPolyline
90
8
70
1
43
0.0
10
-45.099999999999994
20
79.324999999999989
42
0.41421356237309503
10
-44.5
20
78.724999999999994
10
-29.318750000000001
20
78.724999999999994
42
0.41421356237310591
10
-28.718750000000011
20
79.324999999999989
10
-28.718750000000007
20
92.124999999999986
42
0.41421356237309076
10
-29.318749999999998
20
92.724999999999994
10
-44.500000000000014
20
92.725000000000009
42
0.41421356237308637
10
-45.100000000000016
20
92.124999999999986
0
LWPOLYLINE
5
141
100
AcDbEntity
8
0
100
AcDbPolyline
90
8
70
1
43
0.0
10
-50.150000000000006
20
34.975000000000009
10
-50.150000000000006
20
22.175000000000004
42
-0.41421356237310375
10
-50.75
20
21.575000000000003
10
-63.550000000000004
20
21.57500000000001
42
-0.41421356237310153
10
-64.150000000000006
20
22.175000000000004
10
-64.150000000000006
20
34.975000000000009
42
-0.41421356237309287
10
-63.550000000000004
20
35.575000000000003
10
-50.749999999999993
20
35.57500000000001
42
-0.41421356237308637
0
LWPOLYLINE
5
142
100
AcDbEntity
8
0
100
AcDbPolyline
90
8
70
1
43
0.0
10
-69.200000000000017
20
34.975000000000009
10
-69.200000000000003
20
22.175000000000004
42
-0.41421356237309287
10
-69.800000000000011
20
21.575000000000003
10
-82.59999999999998
20
21.574999999999989
42
-0.41421356237309936
10
-83.200000000000003
20
22.175000000000004
10
-83.200000000000003
20
34.975000000000009
42
-0.41421356237311024
10
-82.599999999999994
20
35.575000000000003
10
-69.800000000000011
20
35.574999999999989
42
-0.41421356237310153
0
LWPOLYLINE
5
143
100
AcDbEntity
8
0
100
AcDbPolyline
90
8
70
1
43
0.0
10
-184.09999999999999
20
21.575000000000003
42
0.41421356237310375
10
-183.5
20
22.175000000000004
10
-183.5
20
34.975000000000009
42
0.41421356237312101
10
-184.09999999999999
20
35.574999999999989
10
-196.90000000000001
20
35.575000000000003
42
0.41421356237310375
10
-197.5
20
34.975000000000009
10
-197.5
20
22.175000000000004
42
0.41421356237312101
10
-196.90000000000001
20
21.575000000000017
0
LWPOLYLINE
5
144
100
AcDbEntity
8
0
100
AcDbPolyline
90
8
70
1
43
0.0
10
-31.699999999999999
20
21.575000000000003
42
0.41421356237310375
10
-31.099999999999998
20
22.175000000000004
10
-31.099999999999998
20
34.975000000000009
42
0.41421356237310375
10
-31.699999999999999
20
35.575000000000003
10
-44.5
20
35.575000000000003
42
0.41421356237310375
10
-45.099999999999994
20
34.975000000000009
10
-45.099999999999994
20
22.175000000000004
42
0.41421356237309503
10
-44.499999999999993
20
21.575000000000006
0
LWPOLYLINE
5
145
100
AcDbEntity
8
0
100
AcDbPolyline
90
8
70
1
43
0.0
10
-88.849999999999994
20
21.575000000000003
42
0.41421356237311024
10
-88.25
20
22.175000000000004
10
-88.25
20
34.975000000000009
42
0.41421356237309936
10
-88.849999999999994
20
35.57500000000001
10
-101.65000000000001
20
35.575000000000003
42
0.41421356237311024
10
-102.25000000000001
20
34.975000000000009
10
-102.25000000000001
20
22.175000000000004
42
0.41421356237309936
10
-101.65000000000001
20
21.574999999999996
0
LWPOLYLINE
5
146
100
AcDbEntity
8
0
100
AcDbPolyline
90
8
70
1
43
0.0
10
-155.52500000000003
20
2.5249999999999999
42
0.41421356237309559
10
-154.92500000000001
20
3.125
10
-154.92500000000001
20
15.925000000000002
42
0.41421356237309614
10
-155.52500000000003
20
16.525000000000002
10
-168.32499999999999
20
16.525000000000002
42
0.41421356237310264
10
-168.92499999999998
20
15.925000000000002
10
-168.92499999999998
20
3.125
42
0.41421356237312051
10
-168.32499999999999
20
2.5249999999999995
0
LWPOLYLINE
5
147
100
AcDbEntity
8
0
100
AcDbPolyline
90
8
70
1
43
0.0
10
-231.72499999999999
20
2.5249999999999999
42
0.41421356237311158
10
-231.12500000000006
20
3.125
10
-231.125
20
15.925000000000002
42
0.41421356237312867
10
-231.72499999999999
20
16.524999999999991
10
-244.52500000000001
20
16.525000000000002
42
0.4142135623731113
10
-245.125
20
15.925000000000002
10
-245.125
20
3.125
42
0.41421356237312917
10
-244.52500000000001
20
2.5250000000000128
0
LWPOLYLINE
5
148
100
AcDbEntity
8
0
100
AcDbPolyline
90
8
70
1
43
0.0
10
-212.67500000000001
20
2.5249999999999999
42
0.41421356237310292
10
-212.07500000000005
20
3.125
10
-212.07500000000005
20
15.925000000000002
42
0.41421356237312001
10
-212.67500000000001
20
16.525000000000002
10
-225.47499999999999
20
16.525000000000002
42
0.4142135623731113
10
-226.07499999999999
20
15.925000000000002
10
-226.07499999999999
20
3.125
42
0.41421356237312917
10
-225.47499999999999
20
2.5249999999999995
0
LWPOLYLINE
5
149
100
AcDbEntity
8
0
100
AcDbPolyline
90
8
70
1
43
0.0
10
-117.425
20
2.5249999999999999
42
0.41421356237309559
10
-116.82499999999999
20
3.125
10
-116.82499999999999
20
15.925000000000002
42
0.41421356237309614
10
-117.425
20
16.525000000000006
10
-130.22500000000002
20
16.525000000000002
42
0.41421356237309503
10
-130.82500000000002
20
15.925000000000002
10
-130.82500000000002
20
3.125
42
0.41421356237309531
10
-130.22500000000002
20
2.524999999999995
0
LWPOLYLINE
5
150
100
AcDbEntity
8
0
100
AcDbPolyline
90
8
70
1
43
0.0
10
-193.02500000000003
20
15.925000000000002
10
-193.02500000000003
20
3.125
42
-0.41421356237310292
10
-193.625
20
2.5249999999999999
10
-206.42500000000001
20
2.5250000000000314
42
-0.41421356237312051
10
-207.02500000000001
20
3.125
10
-207.02500000000001
20
15.925000000000002
42
-0.41421356237310264
10
-206.42500000000001
20
16.525000000000002
10
-193.625
20
16.52499999999997
42
-0.41421356237312001
0
LWPOLYLINE
5
151
100
AcDbEntity
8
0
100
AcDbPolyline
90
8
70
1
43
0.0
10
-174.57499999999999
20
2.5249999999999999
42
0.41421356237310292
10
-173.97500000000002
20
3.125
10
-173.97500000000002
20
15.925000000000002
42
0.41421356237312001
10
-174.57499999999999
20
16.525000000000002
10
-187.375
20
16.525000000000002
42
0.41421356237310264
10
-187.97499999999999
20
15.925000000000002
10
-187.97499999999999
20
3.125
42
0.41421356237312051
10
-187.375
20
2.5250000000000128
0
LWPOLYLINE
5
152
100
AcDbEntity
8
0
100
AcDbPolyline
90
8
70
1
43
0.0
10
-136.47500000000002
20
2.5249999999999999
42
0.41421356237309559
10
-135.875
20
3.125
10
-135.875
20
15.925000000000002
42
0.41421356237309614
10
-136.47500000000002
20
16.525000000000002
10
-149.27500000000003
20
16.525000000000002
42
0.41421356237309503
10
-149.87500000000003
20
15.925000000000002
10
-149.87500000000003
20
3.125
42
0.41421356237309531
10
-149.27500000000003
20
2.524999999999995
0
LWPOLYLINE
5
153
100
AcDbEntity
8
0
100
AcDbPolyline
90
8
70
1
43
0.0
10
-202.55000000000001
20
34.975000000000009
10
-202.55000000000001
20
22.175000000000004
42
-0.41421356237310375
10
-203.15000000000001
20
21.575000000000003
10
-215.94999999999999
20
21.575000000000017
42
-0.41421356237312978
10
-216.54999999999998
20
22.175000000000004
10
-216.54999999999998
20
34.975000000000009
42
-0.41421356237312978
10
-215.94999999999999
20
35.575000000000003
10
-203.15000000000003
20
35.574999999999974
42
-0.41421356237312101
0
LWPOLYLINE
5
154
100
AcDbEntity
8
0
100
AcDbPolyline
90
8
70
1
43
0.0
10
-7.8875000000000011
20
21.575000000000003
42
0.41421356237309936
10
-7.2874999999999996
20
22.175000000000004
10
-7.2874999999999996
20
34.975000000000009
42
0.41421356237310047
10
-7.8875000000000028
20
35.575000000000003
10
-20.6875
20
35.575000000000003
42
0.41421356237309936
10
-21.287500000000001
20
34.975000000000009
10
-21.287500000000001
20
22.175000000000004
42
0.41421356237309287
10
-20.687500000000014
20
21.575000000000003
0
LWPOLYLINE
5
155
100
AcDbEntity
8
0
100
AcDbPolyline
90
8
70
1
43
0.0
10
-121.30000000000001
20
22.175000000000004
42
0.41421356237309503
10
-120.7
20
21.574999999999996
10
-107.90000000000001
20
21.575000000000003
42
0.41421356237311024
10
-107.30000000000001
20
22.175000000000004
10
-107.30000000000001
20
34.975000000000009
42
0.41421356237309936
10
-107.90000000000001
20
35.575000000000003
10
-120.7
20
35.575000000000003
42
0.41421356237309725
10
-121.30000000000001
20
34.975000000000009
0
LWPOLYLINE
5
156
100
AcDbEntity
8
0
100
AcDbPolyline
90
8
70
1
43
0.0
10
-126.95
20
21.575000000000003
42
0.41421356237309725
10
-126.35000000000002
20
22.175000000000004
10
-126.34999999999999
20
34.975000000000009
42
0.41421356237309503
10
-126.95
20
35.57500000000001
10
-139.75
20
35.575000000000003
42
0.41421356237309725
10
-140.35000000000002
20
34.975000000000009
10
-140.35000000000002
20
22.175000000000004
42
0.41421356237309503
10
-139.75
20
21.574999999999996
0
LWPOLYLINE
5
157
100
AcDbEntity
8
0
100
AcDbPolyline
90
8
70
1
43
0.0
10
-74.5625
20
40.625000000000007
42
0.41421356237310375
10
-73.962500000000006
20
41.225000000000009
10
-73.962500000000006
20
54.024999999999999
42
0.41421356237310375
10
-74.5625
20
54.624999999999993
10
-87.362499999999997
20
54.624999999999993
42
0.41421356237306473
10
-87.962500000000006
20
54.024999999999999
10
-87.962500000000006
20
41.225000000000009
42
0.41421356237311241
10
-87.362499999999997
20
40.625000000000007
0
LWPOLYLINE
5
158
100
AcDbEntity
8
0
100
AcDbPolyline
90
8
70
1
43
0.0
10
-55.512500000000003
20
40.625000000000007
42
0.41421356237309503
10
-54.912500000000009
20
41.225000000000009
10
-54.912500000000009
20
54.024999999999999
42
0.41421356237309076
10
-55.512499999999996
20
54.624999999999993
10
-68.3125
20
54.624999999999993
42
0.41421356237310375
10
-68.912499999999994
20
54.024999999999999
10
-68.912500000000009
20
41.225000000000009
42
0.41421356237310375
10
-68.3125
20
40.625000000000007
0
LWPOLYLINE
5
159
100
AcDbEntity
8
0
100
AcDbPolyline
90
8
70
1
43
0.0
10
-93.612499999999997
20
40.625000000000007
42
0.41421356237306473
10
-93.012500000000017
20
41.225000000000009
10
-93.012499999999989
20
54.024999999999999
42
0.41421356237311241
10
-93.612499999999997
20
54.625
10
-106.41249999999999
20
54.624999999999993
42
0.41421356237312101
10
-107.01249999999999
20
54.024999999999999
10
-107.0125
20
41.225000000000009
42
0.41421356237309936
10
-106.41249999999999
20
40.625
0
LWPOLYLINE
5
160
100
AcDbEntity
8
0
100
AcDbPolyline
90
8
70
1
43
0.0
10
-240.65000000000001
20
92.125
42
0.41421356237315576
10
-241.25000000000003
20
92.725000000000009
10
-256.43124999999992
20
92.725000000000009
42
0.41421356237317308
10
-257.03124999999994
20
92.125
10
-257.03124999999994
20
79.325000000000017
42
0.41421356237313839
10
-256.43124999999998
20
78.725000000000009
10
-241.25
20
78.725000000000009
42
0.41421356237313839
10
-240.65000000000001
20
79.325000000000017
0
ENDSEC
0
SECTION
2
OBJECTS
0
DICTIONARY
5
C
100
AcDbDictionary
3
ACAD_GROUP
350
D
3
ACAD_MLINESTYLE
350
17
0
DICTIONARY
5
D
100
AcDbDictionary
0
DICTIONARY
5
1A
330
C
100
AcDbDictionary
0
DICTIONARY
5
17
100
AcDbDictionary
0
ENDSEC
0
EOF
